<?xml version="1.0" standalone="no"?>
<!DOCTYPE svg PUBLIC "-//W3C//DTD SVG 20010904//EN"
 "http://www.w3.org/TR/2001/REC-SVG-20010904/DTD/svg10.dtd">
<svg version="1.0" xmlns="http://www.w3.org/2000/svg"
 width="1745.000000pt" height="1745.000000pt" viewBox="0 0 1745.000000 1745.000000"
 preserveAspectRatio="xMidYMid meet">
<metadata>
Created by potrace 1.14, written by Peter Selinger 2001-2017
</metadata>
<g transform="translate(0.000000,1745.000000) scale(0.100000,-0.100000)"
fill="#000000" stroke="none">
<path d="M8368 16734 c-2 -1 -57 -5 -123 -8 -66 -4 -142 -8 -170 -11 -27 -3
-72 -7 -100 -10 -27 -3 -77 -8 -110 -10 -33 -3 -71 -7 -85 -10 -41 -6 -173
-25 -210 -29 -31 -4 -109 -17 -180 -31 -25 -5 -123 -23 -170 -31 -47 -9 -325
-75 -420 -100 -509 -135 -1109 -373 -1546 -614 -33 -18 -79 -44 -104 -58 -180
-99 -413 -246 -612 -385 l-126 -89 36 -32 c21 -18 174 -147 342 -286 168 -140
307 -256 310 -260 3 -3 30 -25 60 -50 30 -25 57 -47 60 -50 3 -3 72 -62 155
-130 82 -69 182 -152 221 -185 38 -33 81 -69 95 -80 13 -11 112 -94 219 -184
107 -90 217 -182 244 -205 27 -22 54 -45 60 -51 6 -5 51 -44 101 -85 49 -41
101 -85 115 -96 66 -56 375 -316 445 -373 28 -23 61 -52 75 -64 14 -13 50 -43
80 -67 30 -25 57 -47 60 -50 3 -3 34 -30 70 -60 36 -30 70 -59 76 -65 6 -5 33
-28 60 -50 27 -22 107 -89 179 -150 72 -60 155 -130 185 -155 30 -25 57 -47
60 -51 4 -5 199 -170 335 -283 27 -22 94 -79 150 -126 55 -47 109 -92 120
-101 11 -10 52 -44 91 -78 l72 -61 171 0 171 0 122 103 c66 56 196 165 287
241 91 76 191 160 221 186 50 43 359 303 404 340 10 8 23 20 30 26 6 5 67 57
136 114 69 57 143 120 166 139 22 20 51 45 65 56 45 37 144 120 169 142 34 29
106 90 166 139 71 60 525 442 549 462 108 91 642 539 680 571 55 44 141 117
145 122 3 3 160 135 350 293 190 159 365 305 390 326 25 21 79 66 120 100 41
34 76 63 78 65 1 1 -62 47 -140 102 -526 366 -1115 670 -1693 873 -66 23 -129
45 -140 50 -21 9 -161 52 -310 95 -79 23 -293 78 -350 91 -11 2 -29 6 -40 8
-36 9 -327 66 -354 70 -14 3 -46 8 -71 11 -25 4 -54 9 -65 11 -78 15 -396 51
-520 59 -49 4 -112 9 -140 11 -54 6 -712 13 -717 8z"/>
<path d="M1460 16551 c0 -8 185 -553 263 -776 19 -55 62 -176 95 -270 91 -259
302 -845 389 -1081 l78 -211 205 -172 c113 -95 214 -180 225 -189 11 -9 45
-37 75 -62 30 -25 57 -48 60 -51 3 -3 88 -75 190 -160 102 -84 187 -156 190
-159 3 -4 102 -87 220 -185 118 -99 226 -189 240 -201 14 -12 75 -63 135 -114
61 -50 121 -101 135 -113 14 -12 95 -80 180 -151 85 -72 187 -157 225 -189 39
-33 79 -67 90 -76 65 -54 474 -397 495 -415 14 -12 162 -136 329 -276 285
-239 660 -557 671 -569 3 -3 34 -30 70 -60 36 -30 74 -64 86 -75 11 -12 40
-37 64 -56 48 -39 116 -97 140 -120 8 -8 42 -37 75 -65 33 -27 67 -57 75 -65
8 -8 40 -36 70 -62 30 -25 71 -60 90 -77 19 -17 40 -34 45 -39 6 -4 116 -99
245 -211 265 -229 248 -215 615 -532 149 -128 272 -235 275 -239 3 -3 34 -30
70 -60 36 -30 67 -57 70 -60 3 -3 31 -27 63 -54 l57 -48 0 880 0 880 -24 15
c-13 9 -29 22 -37 29 -8 8 -102 88 -209 178 -107 89 -247 207 -310 260 -63 54
-194 164 -290 245 -96 81 -186 156 -200 168 -14 12 -50 42 -80 67 -30 25 -57
47 -60 50 -3 3 -75 64 -160 135 -85 71 -157 132 -160 135 -5 5 -165 139 -204
170 -10 8 -23 20 -30 25 -6 6 -67 58 -136 115 -69 58 -127 107 -130 110 -3 3
-30 25 -60 50 -30 25 -57 47 -60 50 -3 3 -61 52 -130 110 -248 207 -446 373
-494 414 -28 22 -70 58 -95 80 -25 21 -55 45 -66 55 -41 34 -210 176 -215 181
-3 3 -70 59 -150 125 -80 66 -147 122 -150 125 -3 3 -113 96 -245 205 -132
110 -242 202 -245 205 -5 5 -105 89 -143 120 -10 8 -28 23 -40 33 -71 60 -154
129 -542 452 -488 406 -442 367 -760 631 -132 110 -254 210 -271 224 -18 14
-130 106 -250 206 -402 331 -654 530 -654 515z"/>
<path d="M15807 16520 c-75 -56 -134 -104 -522 -419 -137 -112 -254 -209 -260
-215 -5 -7 -17 -17 -26 -22 -9 -5 -38 -28 -65 -51 -41 -34 -498 -414 -653
-542 -25 -20 -74 -61 -110 -91 -36 -30 -75 -62 -86 -72 -11 -9 -92 -76 -180
-149 -88 -74 -168 -140 -179 -149 -10 -8 -23 -20 -30 -25 -10 -10 -289 -242
-330 -275 -10 -8 -23 -20 -30 -25 -6 -6 -51 -44 -101 -86 -49 -41 -216 -180
-370 -309 -530 -444 -591 -495 -640 -535 -27 -22 -67 -56 -90 -76 -22 -19
-182 -154 -355 -298 -173 -145 -328 -275 -344 -289 -27 -23 -108 -91 -531
-445 -71 -60 -141 -119 -155 -131 -14 -12 -108 -91 -210 -176 -102 -85 -187
-157 -190 -160 -3 -3 -32 -28 -65 -55 -33 -28 -65 -54 -71 -60 -6 -5 -33 -28
-60 -50 -27 -22 -67 -56 -89 -75 -22 -20 -67 -58 -100 -85 -90 -75 -83 -69
-340 -286 -132 -111 -264 -223 -294 -248 -29 -25 -57 -49 -62 -52 -5 -3 -8
-374 -7 -882 l3 -877 135 117 c75 65 162 141 194 168 33 28 64 55 70 60 6 6
94 83 196 171 102 87 199 171 215 185 17 15 102 89 190 164 88 76 189 163 224
194 36 31 155 134 265 230 111 95 228 196 261 225 32 28 77 67 100 86 22 19
42 37 45 40 3 3 36 32 75 65 98 84 126 108 139 120 6 6 58 50 116 100 58 49
107 92 110 95 3 3 30 25 60 50 30 25 57 47 60 50 3 3 32 27 65 55 33 27 62 52
65 55 3 3 70 60 150 126 80 66 222 185 315 264 94 78 235 197 315 264 80 66
147 123 150 126 3 4 88 75 190 160 102 85 187 157 190 160 3 3 43 37 90 75 47
38 96 79 110 91 34 30 123 105 385 324 121 102 229 192 240 201 11 10 99 84
195 164 96 81 186 157 200 169 14 11 77 64 140 117 442 369 515 433 526 463 6
17 57 157 113 311 57 154 118 321 136 370 110 296 565 1601 565 1620 0 10 -16
3 -53 -25z"/>
<path d="M15760 13852 c-126 -64 -186 -107 -371 -264 -85 -73 -263 -225 -395
-337 -131 -112 -252 -215 -269 -230 -16 -14 -91 -78 -165 -141 -74 -63 -146
-124 -160 -136 -14 -12 -119 -103 -235 -201 -115 -98 -223 -190 -239 -203 -38
-33 -108 -93 -181 -155 -32 -27 -67 -58 -79 -68 -11 -9 -30 -25 -41 -35 -11
-10 -63 -53 -115 -97 -52 -44 -97 -82 -100 -85 -3 -3 -47 -41 -99 -85 -52 -44
-133 -113 -180 -154 -112 -95 -124 -106 -201 -170 -36 -30 -69 -60 -75 -65 -5
-6 -35 -31 -65 -56 -30 -25 -57 -47 -60 -50 -3 -3 -297 -255 -655 -560 -357
-305 -655 -559 -661 -565 -6 -5 -32 -28 -59 -50 -26 -22 -98 -83 -159 -135
-61 -52 -133 -113 -160 -135 -26 -22 -53 -45 -59 -50 -7 -6 -91 -76 -187 -156
-96 -80 -197 -167 -225 -193 -27 -26 -79 -73 -115 -104 -66 -58 -130 -115
-160 -142 -9 -8 -50 -44 -91 -80 -143 -126 -171 -161 -207 -265 -24 -71 -30
-103 -41 -210 -4 -44 -8 -900 -9 -1903 -2 -1566 0 -1822 12 -1815 7 4 38 31
68 58 31 28 83 75 118 105 90 79 91 79 165 145 38 33 78 69 89 80 12 11 60 54
106 95 47 41 90 80 96 85 6 6 39 35 74 65 34 30 72 64 84 75 13 11 56 49 96
85 41 36 117 103 170 150 53 47 126 111 162 143 l67 59 0 996 c0 549 0 1061 0
1139 l1 141 118 99 c64 54 119 100 122 103 5 5 96 82 145 122 11 9 65 54 119
100 55 45 186 155 291 243 334 280 485 408 594 500 59 50 129 108 156 130 27
22 70 58 95 80 25 22 68 58 95 80 27 22 110 92 185 155 75 63 159 133 185 155
27 22 99 82 159 134 61 51 120 101 131 110 95 78 206 172 235 198 19 17 65 55
101 85 55 44 128 105 264 220 11 9 169 141 350 294 182 152 351 295 378 317
26 23 51 44 55 47 7 4 83 207 178 475 14 39 32 86 39 105 8 19 35 94 60 165
41 116 70 196 175 490 143 399 381 1097 378 1107 -2 5 -46 -13 -98 -40z"/>
<path d="M1460 13876 c0 -2 23 -79 50 -172 28 -93 53 -178 55 -188 14 -62 287
-880 296 -891 5 -5 9 -16 9 -24 0 -8 23 -78 51 -155 91 -252 130 -361 139
-381 5 -11 48 -126 95 -255 102 -274 65 -227 384 -494 113 -94 218 -183 235
-198 17 -14 96 -81 176 -148 227 -191 242 -203 254 -214 6 -6 65 -56 131 -111
157 -130 689 -577 695 -584 3 -3 25 -22 50 -42 25 -20 55 -45 66 -55 12 -11
43 -37 70 -59 26 -22 154 -129 283 -239 130 -109 258 -217 286 -240 27 -22 65
-55 85 -72 19 -16 107 -90 195 -164 216 -181 346 -290 370 -312 11 -10 67 -57
125 -104 58 -48 107 -90 110 -93 3 -4 84 -72 180 -152 96 -80 182 -152 191
-161 11 -11 14 -30 11 -69 -2 -30 -5 -532 -7 -1117 -2 -827 0 -1066 9 -1075
21 -20 367 -323 441 -386 22 -18 60 -52 85 -75 25 -23 77 -68 115 -101 39 -33
72 -62 75 -65 3 -3 122 -109 265 -235 143 -125 265 -233 270 -239 6 -6 20 -20
33 -30 l22 -19 0 1919 -1 1919 -23 70 c-26 81 -80 171 -140 233 -22 24 -104
96 -181 160 -77 64 -142 119 -145 122 -3 3 -106 91 -230 195 -124 104 -257
217 -295 250 -39 33 -94 80 -124 105 -29 25 -59 50 -65 55 -6 6 -38 33 -71 60
-33 28 -71 60 -85 72 -118 101 -249 205 -276 218 -26 12 -226 177 -499 410
-74 63 -416 353 -445 378 -37 30 -154 131 -160 137 -3 3 -45 39 -95 80 -49 41
-92 77 -95 80 -3 3 -48 41 -100 85 -52 44 -100 85 -106 91 -6 5 -35 30 -64 55
-29 24 -58 49 -64 54 -20 18 -141 120 -154 130 -7 6 -23 19 -35 31 -19 18
-244 210 -316 269 -14 11 -32 27 -41 35 -8 8 -56 49 -105 90 -49 41 -103 87
-120 101 -40 36 -388 333 -455 389 -29 25 -58 50 -64 55 -6 6 -38 33 -71 60
-33 28 -62 52 -65 56 -3 3 -66 56 -140 119 -74 63 -153 130 -175 149 -22 20
-65 56 -95 81 -83 70 -341 289 -380 324 -19 17 -56 48 -82 69 -26 21 -53 44
-60 50 -30 29 -89 68 -176 116 -88 49 -102 55 -102 47z"/>
<path d="M3301 7842 l-1 -1707 131 -115 c73 -63 139 -122 148 -130 9 -9 54
-49 101 -90 47 -41 87 -77 90 -80 3 -3 61 -55 130 -115 68 -61 134 -119 146
-130 32 -31 92 -83 174 -155 41 -36 77 -67 80 -70 3 -3 41 -37 85 -75 44 -39
82 -73 85 -76 3 -3 48 -43 100 -89 52 -46 97 -86 100 -89 3 -3 41 -38 85 -76
44 -39 95 -84 115 -102 19 -17 44 -40 56 -50 12 -10 52 -45 90 -79 38 -34 155
-137 259 -229 105 -93 213 -189 241 -214 43 -39 84 -76 204 -181 9 -8 50 -44
90 -80 41 -36 119 -105 174 -154 56 -49 121 -107 146 -130 25 -23 101 -90 170
-151 69 -60 143 -126 165 -147 22 -20 52 -46 67 -58 15 -12 40 -33 55 -48 29
-28 155 -140 227 -202 49 -42 229 -203 236 -210 3 -3 39 -35 80 -70 41 -36 79
-70 85 -76 5 -6 69 -62 140 -125 72 -62 132 -116 135 -119 3 -3 61 -55 130
-115 68 -61 134 -119 146 -130 28 -26 52 -47 209 -185 72 -63 132 -117 135
-120 3 -3 43 -39 90 -80 47 -41 103 -91 125 -111 46 -41 312 -275 337 -297 17
-14 68 26 368 294 19 17 112 98 205 180 94 82 175 153 181 159 10 9 80 69 140
122 12 10 52 45 90 79 38 34 112 98 164 144 52 45 109 94 125 109 17 15 91 80
165 145 74 65 149 130 165 145 34 30 746 654 844 740 35 31 69 61 75 66 6 6
47 42 91 80 97 85 134 117 149 130 6 6 47 42 91 80 44 39 98 86 119 105 75 67
84 75 112 99 30 25 170 148 190 166 6 6 41 37 79 70 38 33 92 80 120 105 28
25 82 72 119 105 38 33 74 65 80 70 6 6 61 53 121 105 61 52 112 97 115 100 3
3 39 35 80 70 41 36 77 68 80 71 3 3 48 43 100 88 52 46 124 109 160 141 36
31 106 92 155 136 50 43 92 81 95 84 3 3 37 32 75 65 39 33 72 62 75 65 3 3
39 35 80 70 41 36 79 70 85 76 5 5 44 39 85 75 41 35 92 80 114 99 75 67 85
76 168 148 l85 73 -3 832 c-3 1168 -15 1845 -40 2447 -4 85 -7 165 -8 178 0
12 -3 22 -6 22 -3 0 -73 -57 -155 -126 -83 -69 -159 -133 -170 -142 -32 -27
-137 -115 -165 -138 -76 -65 -122 -103 -165 -139 -27 -22 -53 -45 -59 -50 -6
-6 -63 -53 -126 -105 -63 -52 -117 -97 -120 -101 -3 -3 -34 -30 -70 -60 -36
-29 -70 -58 -76 -64 -6 -5 -41 -34 -78 -64 -39 -33 -67 -63 -67 -75 -1 -12 -2
-394 -3 -851 -2 -925 3 -862 -72 -1005 -46 -87 -103 -150 -264 -288 -74 -64
-151 -131 -170 -148 -19 -17 -96 -84 -170 -149 -74 -64 -148 -129 -165 -144
-16 -14 -149 -132 -295 -260 -146 -129 -281 -248 -300 -265 -19 -17 -73 -65
-119 -106 -47 -41 -92 -82 -101 -90 -9 -8 -49 -44 -90 -80 -40 -36 -94 -83
-119 -106 -25 -22 -93 -83 -151 -134 -152 -134 -238 -211 -269 -240 -15 -14
-43 -38 -62 -54 -19 -16 -57 -50 -84 -75 -28 -25 -86 -77 -130 -116 -67 -59
-127 -112 -181 -160 -6 -5 -42 -37 -79 -70 -37 -33 -80 -71 -94 -83 -14 -13
-91 -78 -171 -145 -80 -67 -147 -124 -150 -127 -3 -3 -41 -34 -85 -69 -44 -36
-87 -71 -96 -78 -15 -13 -16 173 -16 2337 0 1293 -3 2353 -7 2357 -8 8 -1205
8 -1213 0 -3 -4 -7 -219 -9 -479 -3 -533 -13 -2097 -19 -2948 -2 -311 -5 -717
-6 -902 -1 -245 -5 -336 -13 -331 -14 9 -80 56 -86 63 -3 3 -25 21 -50 40 -39
30 -249 214 -485 425 -38 34 -85 75 -103 90 -18 15 -48 42 -66 59 -18 17 -66
60 -106 96 -95 84 -105 93 -169 148 -30 26 -66 58 -80 72 -14 14 -78 71 -142
127 -64 56 -123 108 -130 115 -8 7 -48 42 -89 78 -41 36 -77 67 -80 71 -3 3
-102 90 -220 194 -118 103 -217 191 -220 194 -3 3 -34 31 -70 61 -36 30 -67
57 -70 61 -3 3 -77 68 -165 144 -88 76 -171 149 -185 161 -14 12 -59 51 -100
86 -41 34 -77 65 -80 68 -3 3 -99 86 -215 185 -221 189 -275 242 -339 334 -34
48 -84 143 -93 176 -40 143 -59 264 -55 365 1 14 3 333 6 710 l4 685 -190 160
c-105 88 -253 212 -328 275 -75 63 -150 126 -167 140 -16 14 -54 46 -84 71
-75 64 -434 366 -490 411 l-46 38 -2 -1708z"/>
</g>
</svg>
